<?xml version="1.0" standalone="no"?>
<!DOCTYPE svg PUBLIC "-//W3C//DTD SVG 20010904//EN"
 "http://www.w3.org/TR/2001/REC-SVG-20010904/DTD/svg10.dtd">
<svg version="1.0" xmlns="http://www.w3.org/2000/svg"
 width="183.000000pt" height="88.500000pt" viewBox="0 0 366.000000 177.000000"
 preserveAspectRatio="xMidYMid meet">
<metadata>
Created by potrace 1.15, written by Peter Selinger 2001-2017
</metadata>
<g transform="translate(0.000000,177.000000) scale(0.100000,-0.100000)"
fill="#66fcf1" stroke="none">
<path d="M210 890 l0 -780 160 0 160 0 0 335 0 335 315 0 315 0 0 -335 0 -335
160 0 160 0 0 780 0 780 -160 0 -160 0 0 -315 0 -315 -315 0 -315 0 0 315 0
315 -160 0 -160 0 0 -780z"/>
<path d="M1831 913 c92 -416 170 -767 174 -780 5 -23 6 -23 168 -23 l162 0
125 515 c69 283 127 511 131 507 3 -4 57 -216 118 -472 62 -256 117 -484 123
-507 l10 -43 164 0 c90 0 164 2 164 5 0 3 77 349 170 770 94 421 170 769 170
775 0 6 -59 10 -159 10 l-158 0 -25 -132 c-14 -73 -61 -321 -104 -551 -47
-248 -82 -411 -86 -400 -4 10 -62 258 -129 551 l-123 532 -138 0 c-76 0 -138
-3 -138 -6 0 -9 -251 -1088 -254 -1091 -1 -1 -49 245 -107 547 l-104 550 -161
0 -160 0 167 -757z"/>
</g>
</svg>
